<svg xmlns="http://www.w3.org/2000/svg" viewBox="0 0 294.4 351.23"><defs><style>.cls-1,.cls-5{font-size:221.93px;font-family:Hargael;}.cls-1,.cls-2,.cls-4,.cls-5,.cls-6{fill:#fec15f;}.cls-1,.cls-2,.cls-3,.cls-4{stroke:#fff;stroke-miterlimit:10;stroke-width:7px;}.cls-3,.cls-7,.cls-8{fill:#56a773;}.cls-4,.cls-8{font-size:66.69px;font-family:Teko-Semibold, Teko;font-weight:600;letter-spacing:0.05em;}</style></defs><title>Asset 2</title><g id="Layer_2" data-name="Layer 2"><g id="Grp2"><g id="Layer_1_copy_5" data-name="Layer 1 copy 5"><text class="cls-1" transform="matrix(1, -0.14, 0, 1, 18.91, 247.35)">b</text><text class="cls-1" transform="matrix(1, -0.14, 0, 1, 94.91, 236.74)">ill</text><path class="cls-2" d="M256.55,234.37c-5.93,23.53-24.43,54.71-55.72,73.71C147.48,340.46,87.58,331,87.58,331l7-28.89s66.2,17.71,105.45-4.67c20.11-11.47,37.56-54.41,39.9-64.38l6.65-28.48A23.75,23.75,0,0,1,241,206c-9.33,1.35-18-1.61-23.75-8.1s-7.77-15.52-5.55-24.94l16-71.77,17.75-2.57-17.09,75.93a11.76,11.76,0,0,0,2.45,10.52,10.84,10.84,0,0,0,10,3.43,14.71,14.71,0,0,0,11.54-9.88l19.76-83.86,17.75-2.56S262.48,210.84,256.55,234.37Z"/><polygon class="cls-3" points="123.08 72.34 141.13 39.21 150.38 43.5 171.24 16.58 188.03 34.91 198.27 29.79 219.4 41.52 198.11 36.73 182.25 46.8 171.24 36.07 154.18 55.06 144.6 49.12 123.08 72.34"/><text class="cls-4" transform="matrix(1, -0.13, -0.22, 0.97, 94.92, 290.02)">beer</text></g><g id="Layer_1_copy_5-2" data-name="Layer 1 copy 5"><text class="cls-5" transform="matrix(1, -0.14, 0, 1, 18.91, 247.35)">b</text><text class="cls-5" transform="matrix(1, -0.14, 0, 1, 94.91, 236.74)">ill</text><path class="cls-6" d="M256.55,234.37c-5.93,23.53-24.43,54.71-55.72,73.71C147.48,340.46,87.58,331,87.58,331l7-28.89s66.2,17.71,105.45-4.67c20.11-11.47,37.56-54.41,39.9-64.38l6.65-28.48A23.75,23.75,0,0,1,241,206c-9.33,1.35-18-1.61-23.75-8.1s-7.77-15.52-5.55-24.94l16-71.77,17.75-2.57-17.09,75.93a11.76,11.76,0,0,0,2.45,10.52,10.84,10.84,0,0,0,10,3.43,14.71,14.71,0,0,0,11.54-9.88l19.76-83.86,17.75-2.56S262.48,210.84,256.55,234.37Z"/><polygon class="cls-7" points="123.08 72.34 141.13 39.21 150.38 43.5 171.24 16.58 188.03 34.91 198.27 29.79 219.4 41.52 198.11 36.73 182.25 46.8 171.24 36.07 154.18 55.06 144.6 49.12 123.08 72.34"/><text class="cls-8" transform="matrix(1, -0.13, -0.22, 0.97, 94.92, 290.02)">beer</text></g></g></g></svg>